<?xml version="1.0" encoding="utf-8"?>
<!-- Generator: Adobe Illustrator 15.1.0, SVG Export Plug-In . SVG Version: 6.00 Build 0)  -->
<!DOCTYPE svg PUBLIC "-//W3C//DTD SVG 1.1//EN" "http://www.w3.org/Graphics/SVG/1.1/DTD/svg11.dtd">
<svg version="1.1" id="Layer_1" xmlns="http://www.w3.org/2000/svg" xmlns:xlink="http://www.w3.org/1999/xlink" x="0px" y="0px"
	 width="570.636px" height="283.803px" viewBox="0 0 570.636 283.803" enable-background="new 0 0 570.636 283.803"
	 xml:space="preserve">
<g>
	<g>
		<path d="M235.547,172.958c-12.986,40.422-50.232,69.632-94.184,69.632l0,0h243.225v-69.632H235.547z"/>
	</g>
	<rect x="236.41" y="168.174" width="20.087" height="6.035"/>
	<g>
		<path fill="#FFFFFF" d="M244.292,208.357c0-4.819,0.723-8.863,2.166-12.138c1.076-2.41,2.544-4.57,4.405-6.488
			c1.862-1.914,3.901-3.336,6.119-4.262c2.948-1.246,6.349-1.871,10.2-1.871c6.974,0,12.555,2.162,16.737,6.487
			c4.187,4.326,6.282,10.342,6.282,18.048c0,7.639-2.077,13.617-6.23,17.935c-4.156,4.312-9.709,6.469-16.659,6.469
			c-7.038,0-12.635-2.144-16.788-6.439C246.371,221.804,244.292,215.894,244.292,208.357z M254.14,208.034
			c0,5.363,1.235,9.425,3.711,12.19c2.474,2.767,5.622,4.146,9.428,4.146c3.812,0,6.934-1.371,9.379-4.11
			c2.441-2.749,3.664-6.862,3.664-12.354c0-5.423-1.188-9.468-3.57-12.137c-2.375-2.668-5.533-4.003-9.473-4.003
			c-3.937,0-7.112,1.353-9.523,4.053C255.346,198.521,254.14,202.593,254.14,208.034z"/>
		<path fill="#FFFFFF" d="M297.723,231.732v-47.327h32.444v8.006h-22.89v11.202h19.76v8.007h-19.76v20.112H297.723z"/>
		<path fill="#FFFFFF" d="M338.109,231.732v-47.327h32.446v8.006h-22.892v11.202h19.761v8.007h-19.761v20.112H338.109z"/>
	</g>
	<g>
		<path fill="none" d="M415.001,120.826c-9.28,0-13.026,9.42-13.209,18.714h26.021C427.663,130.209,423.934,120.826,415.001,120.826
			z"/>
		<path fill="none" d="M340.024,122.809c-5.288,0-8.596,3.441-10.052,7.142c-0.526,1.19-0.661,2.91-0.661,4.364v5.226h21.163v-2.447
			C350.475,128.629,347.566,122.809,340.024,122.809z"/>
		<path fill="none" d="M415.001,159.709c7.038,0,11.676-6.153,12.635-15.761h-25.675
			C402.89,153.164,407.384,159.709,415.001,159.709z"/>
		<path fill="none" d="M489.713,159.709c7.036,0,11.676-6.153,12.635-15.761h-25.674
			C477.604,153.164,482.096,159.709,489.713,159.709z"/>
		<path fill="none" d="M489.713,120.826c-9.282,0-13.021,9.42-13.209,18.714h26.021
			C502.373,130.209,498.646,120.826,489.713,120.826z"/>
		<path d="M278.144,147.807c0,5.818-4.891,9.651-14.15,9.651c-8.404,0-16.66-2.653-21.971-5.365
			c-0.587,5.816-1.698,11.475-3.234,16.953c5.315,2.564,14.581,4.947,24.016,4.947c24.47,0,35.842-12.697,35.842-27.64
			c0-0.82-0.035-1.62-0.095-2.405h-21.293C277.851,145.111,278.144,146.377,278.144,147.807z"/>
		<path d="M275.632,119.77c-11.639-4.367-16.533-6.879-16.533-12.566c0-4.496,4.235-8.597,12.963-8.597
			c8.597,0,15.075,2.516,18.512,4.233l4.499-16.136c-5.291-2.511-12.565-4.499-22.747-4.499c-20.898,0-33.725,11.509-33.725,26.716
			c0,12.962,9.786,21.163,24.599,26.454c4.083,1.412,7.211,2.747,9.535,4.165h25.078C295.508,130.706,288.325,124.46,275.632,119.77
			z"/>
		<rect x="350.475" y="143.948" width="20.102" height="30.262"/>
		<path d="M329.312,134.314c0-1.454,0.135-3.173,0.661-4.364c1.456-3.701,4.764-7.142,10.052-7.142c7.542,0,10.45,5.82,10.45,14.285
			v2.447h20.102v-4.561c0-19.576-9.782-28.437-22.611-28.437c-3.702,0-7.409,0.925-10.452,2.513
			c-3.172,1.587-5.815,3.836-7.936,6.745h-0.266V78.77h-20.097v60.771h20.097V134.314z"/>
		<rect x="309.215" y="143.948" width="20.097" height="30.045"/>
		<path d="M415.001,159.709c-7.617,0-12.111-6.545-13.04-15.761H381.15c1.398,18.983,15.384,30.178,33.321,30.178
			c16.228,0,31.987-9.516,33.919-30.178h-20.755C426.677,153.556,422.039,159.709,415.001,159.709z"/>
		<path d="M415.001,120.826c8.933,0,12.662,9.383,12.813,18.714h20.776c-0.032-19.536-13.246-33.13-32.926-33.13
			c-20.474,0-34.056,12.84-34.598,33.13h20.726C401.975,130.247,405.721,120.826,415.001,120.826z"/>
		<path d="M489.713,159.709c-7.617,0-12.109-6.545-13.039-15.761h-20.813c1.397,18.983,15.385,30.178,33.314,30.178
			c16.231,0,31.991-9.516,33.923-30.178h-20.751C501.389,153.556,496.749,159.709,489.713,159.709z"/>
		<path d="M489.713,120.826c8.934,0,12.66,9.383,12.812,18.714h20.771c-0.029-19.536-13.241-33.13-32.923-33.13
			c-20.475,0-34.056,12.84-34.599,33.13h20.729C476.692,130.247,480.431,120.826,489.713,120.826z"/>
		<path d="M536.517,149.262c0,9.123,1.844,15.34,5.556,19.173c3.301,3.309,8.724,5.557,15.206,5.557
			c5.556,0,10.444-0.793,12.962-1.72l-0.135-15.21c-1.85,0.396-3.174,0.528-5.945,0.528c-5.953,0-7.94-3.567-7.94-11.37v-2.273
			h-19.703V149.262z"/>
		<polygon points="570.636,122.809 570.636,107.997 556.22,107.997 556.22,90.54 536.517,95.961 536.517,107.997 527.918,107.997 
			527.918,122.809 536.517,122.809 536.517,139.54 556.22,139.54 556.22,122.809 		"/>
		<path fill="#FF0000" d="M240.912,143.948h-1.577h-3.233h-1.574h-1.576c-1.096,49.32-41.529,89.111-91.111,89.111
			c-49.577,0-90.01-39.791-91.108-89.111h-1.573h-1.574H44.35h-1.574h-1.575c1.099,54.578,45.805,98.643,100.639,98.643
			c46.116,0,85.064-31.171,96.947-73.545c1.537-5.478,2.647-11.137,3.234-16.953c0.271-2.686,0.406-5.405,0.462-8.146H240.912z"/>
		<path fill="#FF0000" d="M141.841,41.21c-54.731,0-99.371,43.897-100.631,98.33h1.574h1.574h3.235h1.574h1.575
			C52,90.364,92.368,50.739,141.841,50.739c49.479,0,89.847,39.625,91.104,88.801h1.575h1.575h3.232h1.577h1.574
			C241.217,85.107,196.574,41.21,141.841,41.21z"/>
		<path fill="#FF0000" d="M141.841,56.576c-46.255,0-84.005,37.007-85.261,82.964h1.246h1.245h0.943h1.246h1.246
			c1.253-42.69,36.346-77.04,79.336-77.04c42.995,0,78.089,34.349,79.343,77.04h1.245h1.247h0.944h1.245h1.243
			C225.853,93.583,188.099,56.576,141.841,56.576z"/>
		<path fill="#FF0000" d="M225.871,143.948h-1.244h-0.944h-1.246h-1.246c-1.093,42.834-36.254,77.349-79.351,77.349
			c-43.091,0-78.249-34.515-79.345-77.349h-1.245h-1.245h-0.944h-1.244h-1.246c1.096,46.102,38.912,83.275,85.269,83.275
			c46.36,0,84.177-37.173,85.275-83.275H225.871z"/>
	</g>
	<path fill="#FF0000" d="M0.072,143.948h221.099c0.026-0.683,0.072-1.363,0.072-2.051c0-0.791-0.048-1.572-0.083-2.356H0.085
		C0.051,140.324,0,141.106,0,141.896C0,142.585,0.048,143.265,0.072,143.948z"/>
	<g>
		
			<line fill="none" stroke="#FF0000" stroke-width="4.0929" stroke-miterlimit="10" x1="142.303" y1="0" x2="142.303" y2="283.803"/>
		
			<line fill="none" stroke="#FF0000" stroke-width="9.4451" stroke-miterlimit="10" x1="142.303" y1="118.485" x2="142.303" y2="165.317"/>
		
			<line fill="none" stroke="#FF0000" stroke-width="9.4451" stroke-miterlimit="10" x1="119.28" y1="141.901" x2="165.326" y2="141.901"/>
	</g>
</g>
</svg>
