<?xml version="1.0" encoding="utf-8"?>
<!-- Generator: Adobe Illustrator 16.0.0, SVG Export Plug-In . SVG Version: 6.00 Build 0)  -->
<!DOCTYPE svg PUBLIC "-//W3C//DTD SVG 1.1//EN" "http://www.w3.org/Graphics/SVG/1.1/DTD/svg11.dtd">
<svg version="1.1" id="Layer_1" xmlns="http://www.w3.org/2000/svg" xmlns:xlink="http://www.w3.org/1999/xlink" x="0px" y="0px"
	 width="30.273px" height="20.149px" viewBox="0 0 30.273 20.149" enable-background="new 0 0 30.273 20.149" xml:space="preserve">
<g>
	<path fill-rule="evenodd" clip-rule="evenodd" fill="#7A922D" d="M23.757,2.161C23.743,0.727,23.142-0.013,21.56,0
		C15.143,0.052,8.726,0.049,2.309,0.003c-1.663-0.012-2.31,0.711-2.302,2.309C0.032,7.445,0.042,12.579,0,17.712
		c-0.014,1.72,0.657,2.449,2.43,2.433c6.336-0.058,12.674-0.064,19.01,0.004c1.715,0.02,2.306-0.785,2.319-2.306
		C23.773,16.283,23.773,3.749,23.757,2.161z"/>
	<polygon fill-rule="evenodd" clip-rule="evenodd" fill="#7A922D" points="26.273,5.972 26.273,14.072 30.273,19.462 30.273,0.797 	
		"/>
</g>
</svg>
