<?xml version="1.0" encoding="utf-8"?>
<!-- Generator: Adobe Illustrator 16.0.0, SVG Export Plug-In . SVG Version: 6.00 Build 0)  -->
<!DOCTYPE svg PUBLIC "-//W3C//DTD SVG 1.1//EN" "http://www.w3.org/Graphics/SVG/1.1/DTD/svg11.dtd">
<svg version="1.1" id="Layer_1" xmlns="http://www.w3.org/2000/svg" xmlns:xlink="http://www.w3.org/1999/xlink" x="0px" y="0px"
	 width="32.15px" height="30.004px" viewBox="0 0 32.15 30.004" enable-background="new 0 0 32.15 30.004" xml:space="preserve">
<g>
	<path fill-rule="evenodd" clip-rule="evenodd" fill="#7A922D" d="M0.822,16.951c-0.877-0.325-1.294-2.72,0-3.411
		c0.967-0.403,1.452-0.796,2.414-1.213c2.285-0.991,2.657-2.009,1.705-4.373c-0.447-1.11-1.424-2.09-0.068-3.447
		C6.181,3.198,7.255,3.7,8.555,4.227c2.701,1.097,3.556,0.721,4.681-1.869C13.735,1.208,13.993-0.01,15.812,0
		c1.74,0.009,2.148,1.043,2.675,2.253c1.182,2.712,2.069,3.089,4.646,1.97c1.281-0.557,2.375-1.136,3.712,0.165
		c1.344,1.308,0.507,2.388,0.024,3.485c-0.654,1.488-0.896,2.968,0.609,3.869c1.183,0.708,2.19,0.894,3.546,1.313
		c1.705,0.548,1.279,2.68,0,3.41c-0.967,0.404-1.452,0.797-2.413,1.214c-2.285,0.99-2.663,2.019-1.708,4.371
		c0.45,1.111,1.432,2.098,0.066,3.446c-1.305,1.287-2.378,0.804-3.68,0.271c-2.681-1.094-3.583-0.691-4.683,1.881
		c-0.494,1.154-0.761,2.364-2.577,2.357c-1.742-0.008-2.144-1.052-2.676-2.255c-1.207-2.728-2.048-3.076-4.65-1.97
		c-1.265,0.537-2.357,1.182-3.703-0.155c-1.327-1.318-0.51-2.388-0.029-3.487c0.694-1.588,0.885-3.091-0.798-4.006
		C3.021,17.504,2.11,17.328,0.822,16.951z M16.039,9.947c-3.03-0.044-5.353,2.152-5.35,5.061c0.002,2.819,2.218,5.006,5.117,5.049
		c3.028,0.046,5.358-2.156,5.354-5.059C21.155,12.182,18.932,9.989,16.039,9.947z"/>
</g>
</svg>
