<?xml version="1.0" encoding="utf-8"?>
<!-- Generator: Adobe Illustrator 16.0.0, SVG Export Plug-In . SVG Version: 6.00 Build 0)  -->
<!DOCTYPE svg PUBLIC "-//W3C//DTD SVG 1.1//EN" "http://www.w3.org/Graphics/SVG/1.1/DTD/svg11.dtd">
<svg version="1.1" id="Capa_1" xmlns="http://www.w3.org/2000/svg" xmlns:xlink="http://www.w3.org/1999/xlink" x="0px" y="0px"
	 width="19.814px" height="34.001px" viewBox="99.093 83 19.814 34.001" enable-background="new 99.093 83 19.814 34.001"
	 xml:space="preserve">
<path fill="#7A922D" d="M101.431,83c-1.274,0-2.306,1.033-2.306,2.306l-0.032,27.389c0,0.487,0.254,0.939,0.669,1.192l4.774,2.91
	c0.432,0.263,0.971,0.271,1.41,0.025c0.44-0.248,0.712-0.713,0.712-1.218v-2.437l10.442,3.213c0.424,0.132,0.884,0.053,1.24-0.211
	c0.356-0.263,0.566-0.68,0.566-1.123v-7.576c0-0.688-0.502-1.274-1.184-1.379l-4.776-0.735c0.222-0.596,0.36-1.232,0.36-1.905
	c0-3.03-2.466-5.496-5.496-5.496c-0.411,0-0.809,0.052-1.193,0.139V86.458c0-0.955-0.774-1.729-1.729-1.729
	c-0.451,0-0.857,0.176-1.166,0.458C103.662,83.971,102.663,83,101.431,83z M107.812,100.261c1.76,0,3.19,1.432,3.19,3.19
	c0,0.563-0.158,1.083-0.414,1.542l-2.547-0.393l1.003-0.693c0.324-0.225,0.497-0.583,0.497-0.949c0-0.227-0.066-0.455-0.205-0.655
	c-0.362-0.523-1.081-0.653-1.604-0.292l-1.114,0.771v-2.285C106.988,100.348,107.389,100.261,107.812,100.261z"/>
</svg>
