<?xml version="1.0" encoding="utf-8"?>
<!-- Generator: Adobe Illustrator 16.0.0, SVG Export Plug-In . SVG Version: 6.00 Build 0)  -->
<!DOCTYPE svg PUBLIC "-//W3C//DTD SVG 1.1//EN" "http://www.w3.org/Graphics/SVG/1.1/DTD/svg11.dtd">
<svg version="1.1" id="Layer_1" xmlns="http://www.w3.org/2000/svg" xmlns:xlink="http://www.w3.org/1999/xlink" x="0px" y="0px"
	 width="29.826px" height="33px" viewBox="0 0 29.826 33" enable-background="new 0 0 29.826 33" xml:space="preserve">
<polygon fill="#7A922D" points="21.769,7 17,7 17,0 8,0 8,7 3.153,7 0,9.773 0,24.757 5.654,33 19.288,33 25,24.757 25,9.832 "/>
<path fill="#FFFFFF" stroke="#7A922D" stroke-miterlimit="10" d="M21.426,6.97l4.249,4.25L14.917,21.979l-4.247-4.25L21.426,6.97z
	 M28.9,5.944l-1.896-1.895c-0.733-0.733-1.922-0.733-2.657,0l-1.815,1.816l4.25,4.25L28.9,7.998
	C29.469,7.429,29.469,6.513,28.9,5.944z M8.446,23.702c-0.078,0.349,0.236,0.66,0.585,0.575l4.735-1.148l-4.248-4.25L8.446,23.702z"
	/>
</svg>
