<?xml version="1.0" encoding="utf-8"?>
<!-- Generator: Adobe Illustrator 16.0.0, SVG Export Plug-In . SVG Version: 6.00 Build 0)  -->
<!DOCTYPE svg PUBLIC "-//W3C//DTD SVG 1.1//EN" "http://www.w3.org/Graphics/SVG/1.1/DTD/svg11.dtd">
<svg version="1.1" id="Layer_1" xmlns="http://www.w3.org/2000/svg" xmlns:xlink="http://www.w3.org/1999/xlink" x="0px" y="0px"
	 width="174.361px" height="86.717px" viewBox="0.917 29 174.361 86.717" enable-background="new 0.917 29 174.361 86.717"
	 xml:space="preserve">
<g>
	<text transform="matrix(1 0 0 1 45.1533 111.0586)" fill="#F9F9F9" font-family="'MyriadPro-Regular'" font-size="9.1667">laser dry fire trainer</text>
	<rect x="73.153" y="80.386" fill="#F9F9F9" width="6.138" height="1.844"/>
	<g>
		<path fill="#F9F9F9" d="M72.889,81.848c-3.968,12.351-15.349,21.277-28.778,21.277h74.319V81.848H72.889L72.889,81.848z
			 M87.686,98.076c-1.27,1.318-2.967,1.977-5.09,1.977c-2.15,0-3.86-0.655-5.129-1.967c-1.269-1.313-1.904-3.118-1.904-5.42
			c0-1.473,0.221-2.709,0.662-3.71c0.329-0.736,0.777-1.396,1.346-1.982c0.569-0.585,1.192-1.02,1.87-1.302
			c0.901-0.381,1.94-0.572,3.117-0.572c2.131,0,3.836,0.661,5.114,1.982c1.279,1.321,1.92,3.16,1.92,5.515
			C89.59,94.93,88.955,96.757,87.686,98.076z M101.801,87.792h-6.994v3.423h6.038v2.446h-6.038v6.146h-2.92V85.346h9.914V87.792
			L101.801,87.792z M114.142,87.792h-6.995v3.423h6.039v2.446h-6.039v6.146h-2.919V85.346h9.913L114.142,87.792L114.142,87.792z"/>
		<path fill="#F9F9F9" d="M82.585,87.595c-1.203,0-2.173,0.413-2.91,1.238c-0.736,0.825-1.105,2.069-1.105,3.732
			c0,1.639,0.377,2.88,1.134,3.725c0.756,0.846,1.718,1.267,2.881,1.267c1.165,0,2.119-0.419,2.866-1.256
			c0.746-0.84,1.12-2.097,1.12-3.774c0-1.657-0.363-2.894-1.091-3.708C84.754,88.002,83.789,87.595,82.585,87.595z"/>
	</g>
	<g>
		<path fill="#F9F9F9" d="M85.905,74.163c0,1.778-1.495,2.949-4.324,2.949c-2.568,0-5.091-0.811-6.713-1.639
			c-0.179,1.777-0.519,3.506-0.988,5.18c1.624,0.783,4.456,1.512,7.338,1.512c7.477,0,10.952-3.88,10.952-8.446
			c0-0.25-0.012-0.495-0.029-0.735h-6.506C85.815,73.339,85.905,73.726,85.905,74.163z"/>
		<path fill="#F9F9F9" d="M85.138,65.596c-3.557-1.334-5.052-2.102-5.052-3.839c0-1.374,1.294-2.627,3.961-2.627
			c2.627,0,4.605,0.769,5.656,1.293l1.375-4.931c-1.617-0.767-3.839-1.375-6.951-1.375c-6.386,0-10.305,3.517-10.305,8.163
			c0,3.96,2.99,6.466,7.516,8.083c1.248,0.432,2.204,0.839,2.914,1.273h7.663C91.211,68.938,89.016,67.029,85.138,65.596z"/>
		<rect x="108.006" y="72.983" fill="#F9F9F9" width="6.143" height="9.247"/>
		<path fill="#F9F9F9" d="M101.54,70.04c0-0.444,0.042-0.97,0.202-1.333c0.444-1.131,1.456-2.182,3.072-2.182
			c2.304,0,3.191,1.778,3.191,4.365v0.748h6.143v-1.394c0-5.981-2.988-8.689-6.908-8.689c-1.131,0-2.264,0.283-3.193,0.768
			c-0.97,0.485-1.776,1.172-2.426,2.061h-0.081V53.068h-6.142v18.569h6.142V70.04z"/>
		<rect x="95.398" y="72.983" fill="#F9F9F9" width="6.142" height="9.181"/>
		<path fill="#F9F9F9" d="M127.723,77.799c-2.328,0-3.701-2-3.984-4.816h-6.359c0.427,5.8,4.701,9.221,10.182,9.221
			c4.959,0,9.773-2.908,10.363-9.221h-6.342C131.29,75.919,129.873,77.799,127.723,77.799z"/>
		<path fill="#F9F9F9" d="M127.723,65.918c2.729,0,3.869,2.867,3.915,5.718h6.348c-0.01-5.97-4.048-10.123-10.062-10.123
			c-6.256,0-10.405,3.923-10.57,10.123h6.332C123.742,68.797,124.887,65.918,127.723,65.918z"/>
		<path fill="#F9F9F9" d="M150.551,77.799c-2.327,0-3.699-2-3.984-4.816h-6.359c0.428,5.8,4.701,9.221,10.18,9.221
			c4.959,0,9.775-2.908,10.365-9.221h-6.341C154.119,75.919,152.701,77.799,150.551,77.799z"/>
		<path fill="#F9F9F9" d="M150.551,65.918c2.73,0,3.869,2.867,3.916,5.718h6.346c-0.008-5.97-4.045-10.123-10.06-10.123
			c-6.256,0-10.405,3.923-10.571,10.123h6.334C146.572,68.797,147.715,65.918,150.551,65.918z"/>
		<path fill="#F9F9F9" d="M164.853,74.607c0,2.787,0.563,4.687,1.698,5.858c1.009,1.011,2.666,1.698,4.646,1.698
			c1.697,0,3.19-0.242,3.961-0.525l-0.042-4.647c-0.565,0.121-0.97,0.161-1.816,0.161c-1.819,0-2.427-1.09-2.427-3.474v-0.694h-6.02
			L164.853,74.607L164.853,74.607z"/>
		<polygon fill="#F9F9F9" points="175.277,66.524 175.277,61.999 170.873,61.999 170.873,56.665 164.853,58.321 164.853,61.999 
			162.225,61.999 162.225,66.524 164.853,66.524 164.853,71.637 170.873,71.637 170.873,66.524 		"/>
		<path fill="#D6523C" d="M74.529,72.983h-0.482h-0.988h-0.481h-0.481c-0.335,15.07-12.689,27.229-27.84,27.229
			c-15.148,0-27.503-12.158-27.838-27.229h-0.48h-0.481h-0.989h-0.481h-0.481c0.336,16.677,13.996,30.142,30.751,30.142
			c14.091,0,25.992-9.525,29.623-22.473c0.47-1.674,0.809-3.403,0.988-5.18c0.083-0.821,0.124-1.651,0.141-2.489H74.529
			L74.529,72.983z"/>
		<path fill="#D6523C" d="M44.257,41.591c-16.723,0-30.363,13.413-30.748,30.045h0.481h0.481h0.988h0.481h0.481
			C16.806,56.61,29.14,44.503,44.257,44.503c15.119,0,27.454,12.107,27.837,27.134h0.481h0.481h0.988h0.482h0.481
			C74.622,55.004,60.981,41.591,44.257,41.591z"/>
		<path fill="#D6523C" d="M44.257,46.287c-14.133,0-25.668,11.308-26.052,25.35h0.381h0.38h0.288h0.38h0.381
			c0.383-13.044,11.106-23.54,24.242-23.54c13.137,0,23.86,10.496,24.244,23.54h0.38h0.381h0.289h0.38h0.38
			C69.927,57.594,58.392,46.287,44.257,46.287z"/>
		<path fill="#D6523C" d="M69.933,72.983h-0.38h-0.289h-0.381h-0.38c-0.334,13.088-11.078,23.634-24.246,23.634
			c-13.167,0-23.91-10.545-24.245-23.634h-0.38h-0.38h-0.289h-0.38h-0.381c0.335,14.087,11.89,25.445,26.055,25.445
			c14.166,0,25.721-11.358,26.056-25.445H69.933z"/>
	</g>
	<path fill="#D6523C" d="M0.938,72.983h67.558c0.008-0.208,0.022-0.417,0.022-0.626c0-0.242-0.015-0.48-0.025-0.72H0.943
		c-0.011,0.239-0.026,0.479-0.026,0.72C0.917,72.567,0.931,72.775,0.938,72.983z"/>
	<g>
		<g>
			<rect x="43.772" y="29" fill="#D6523C" width="1.251" height="86.717"/>
		</g>
		<g>
			<rect x="42.955" y="65.204" fill="#D6523C" width="2.886" height="14.309"/>
		</g>
		<g>
			<rect x="37.363" y="70.915" fill="#D6523C" width="14.07" height="2.886"/>
		</g>
	</g>
</g>
</svg>
