<?xml version="1.0" encoding="utf-8"?>
<!-- Generator: Adobe Illustrator 16.0.0, SVG Export Plug-In . SVG Version: 6.00 Build 0)  -->
<!DOCTYPE svg PUBLIC "-//W3C//DTD SVG 1.1//EN" "http://www.w3.org/Graphics/SVG/1.1/DTD/svg11.dtd">
<svg version="1.1" id="Layer_1" xmlns="http://www.w3.org/2000/svg" xmlns:xlink="http://www.w3.org/1999/xlink" x="0px" y="0px"
	 width="17.611px" height="34.01px" viewBox="0 0 17.611 34.01" enable-background="new 0 0 17.611 34.01" xml:space="preserve">
<g>
	<path fill="#7A922D" d="M13.008,31.826c-0.782-0.16-1.239-1.171-1.017-2.248l2.698-12.675C14.917,15.827,14.203,15,13.104,15
		h-1.202c-1.1,0-2-0.152-2-0.5s0.9-0.5,2-0.5h1.476c1.1,0,2.041-0.558,2.092-0.79c0.05-0.232-0.718-1.21-1.817-1.21h-1.75
		c-1.1,0-2-0.152-2-0.5s0.9-0.5,2-0.5h2.026c1.1,0,2.042-0.059,2.093-0.292C16.071,10.475,15.305,10,14.205,10h-2.304
		c-1.1,0-2-0.152-2-0.5s0.9-0.5,2-0.5h2.583c1.1,0,2.198-1.091,2.439-2.164l0.63-2.845c0.252-1.071-0.344-2.41-1.323-2.91
		c0,0-2.551,0.826-2.695,0.073S12.371,0,11.271,0h-1.056c-1.1,0-2.212,0.633-2.47,1.702L0.47,31.66C0.212,32.729,0,33.527,0,33.803
		C0,34.077,0.9,34,2,34h12.222c1.1,0,1.597-0.291,1.104-0.942C14.833,32.406,13.79,31.985,13.008,31.826z"/>
</g>
</svg>
