<?xml version="1.0" encoding="utf-8"?>
<!-- Generator: Adobe Illustrator 16.0.0, SVG Export Plug-In . SVG Version: 6.00 Build 0)  -->
<!DOCTYPE svg PUBLIC "-//W3C//DTD SVG 1.1//EN" "http://www.w3.org/Graphics/SVG/1.1/DTD/svg11.dtd">
<svg version="1.1" id="Layer_1" xmlns="http://www.w3.org/2000/svg" xmlns:xlink="http://www.w3.org/1999/xlink" x="0px" y="0px"
	 width="30.5px" height="24.496px" viewBox="0 0 30.5 24.496" enable-background="new 0 0 30.5 24.496" xml:space="preserve">
<g>
	<path fill-rule="evenodd" clip-rule="evenodd" fill="#7A922D" d="M30.5,1.141c0,0.159,0,0,0,0.159
		c-0.929,0.384-1.857,0.769-3.043,1.26c0,4.518-0.124,9.193,0.053,13.857c0.091,2.369-0.749,3.063-2.992,2.908
		c-2.381-0.164-4.782-0.037-7.73-0.037c1.568,1.952,2.646,3.294,3.724,4.635c-0.235,0.191-0.47,0.382-0.705,0.572
		c-1.545-1.408-3.09-2.816-4.692-4.278c-1.562,1.407-3.374,2.902-4.809,4.196c-0.225-0.228-0.451-0.455-0.676-0.684
		c1.031-1.239,2.44-2.681,3.905-4.441l-7.754,0.038c-2.261,0.168-2.852-0.717-2.784-2.873L3.042,2.381
		C2.476,2.253,0.432,1.553,0,1.181c0.485-0.31,1.387-0.88,1.905-1.12c0.263-0.121,0.625-0.027,0.943-0.027
		c8.256,0,16.511-0.026,24.767,0.034C28.578,0.076,30.5,1.141,30.5,1.141z"/>
</g>
</svg>
