<?xml version="1.0" encoding="utf-8"?>
<!-- Generator: Adobe Illustrator 16.0.0, SVG Export Plug-In . SVG Version: 6.00 Build 0)  -->
<!DOCTYPE svg PUBLIC "-//W3C//DTD SVG 1.1//EN" "http://www.w3.org/Graphics/SVG/1.1/DTD/svg11.dtd">
<svg version="1.1" id="Capa_1" xmlns="http://www.w3.org/2000/svg" xmlns:xlink="http://www.w3.org/1999/xlink" x="0px" y="0px"
	 width="28.308px" height="32px" viewBox="234.472 232.625 28.308 32" enable-background="new 234.472 232.625 28.308 32"
	 xml:space="preserve">
<g>
	<g>
		<path fill="#7A922D" d="M259.088,240.871l1.67-0.383l0.861,0.861l0.861-0.861l-3.872-3.872l-0.861,0.862l0.861,0.862l-0.382,1.669
			c-2.339-2.215-5.538-3.569-8.984-3.692l0.643-2.462h1.231v-1.23h-4.979v1.23h1.23l0.644,2.462
			c-7.508,0.369-13.539,6.523-13.539,14.154c0,7.877,6.277,14.153,14.154,14.153c7.877,0,14.154-6.276,14.154-14.153
			C262.78,246.779,261.427,243.456,259.088,240.871z M249.242,252.194v1.969c0,0.369-0.247,0.616-0.616,0.616
			c-0.369,0-0.615-0.247-0.615-0.616v-1.969c-0.738-0.246-1.23-0.985-1.23-1.723c0-0.739,0.492-1.477,1.23-1.724v-6.892
			c0-0.369,0.246-0.615,0.615-0.615c0.37,0,0.616,0.246,0.616,0.615v6.892c0.737,0.247,1.23,0.984,1.23,1.724
			C250.473,251.209,249.979,251.948,249.242,252.194z"/>
	</g>
</g>
<g>
	<g>
		<g>
			<path fill="#FFFFFF" d="M255.802,250.459c0,0.266-1.962,0.482-4.36,0.482c-2.397,0-4.359-0.217-4.359-0.482
				s1.962-0.482,4.359-0.482C253.84,249.977,255.802,250.193,255.802,250.459z"/>
		</g>
	</g>
</g>
<g>
	<path fill="#FFFFFF" d="M248.626,263.13c-6.987,0-12.671-5.684-12.671-12.671s5.684-12.671,12.671-12.671
		c6.987,0,12.672,5.684,12.672,12.671S255.613,263.13,248.626,263.13z M248.626,238.753c-6.455,0-11.706,5.251-11.706,11.706
		c0,6.455,5.251,11.706,11.706,11.706c6.455,0,11.706-5.251,11.706-11.706C260.332,244.004,255.081,238.753,248.626,238.753z"/>
</g>
</svg>
