<?xml version="1.0" encoding="iso-8859-1"?>
<!-- Generator: Adobe Illustrator 18.0.0, SVG Export Plug-In . SVG Version: 6.00 Build 0)  -->
<!DOCTYPE svg PUBLIC "-//W3C//DTD SVG 1.1//EN" "http://www.w3.org/Graphics/SVG/1.1/DTD/svg11.dtd">
<svg version="1.1" id="Capa_1" xmlns="http://www.w3.org/2000/svg" xmlns:xlink="http://www.w3.org/1999/xlink" x="0px" y="0px"
	 width="20px" height="20px" viewBox="0 0 279.748 279.748" style="enable-background:new 0 0 279.748 279.748;" xml:space="preserve">
<path style="fill:#1e1e1e;" d="M279.748,133.142c0-19.299-15.701-35-35-35c-10.768,0-20.674,4.812-27.279,13.064
	c-18.532-8.431-39.663-13.626-62.015-15.271l19.206-60.692l42.895,9.294c3.285,12.782,14.901,22.258,28.693,22.258
	c16.336,0,29.627-13.29,29.627-29.626c0-16.336-13.291-29.627-29.627-29.627c-11.801,0-21.999,6.941-26.759,16.95l-49.497-10.725
	c-5.041-1.092-10.094,1.833-11.651,6.756l-23.705,74.907c-26.164,0.638-50.988,6.053-72.356,15.775
	C55.674,102.954,45.768,98.142,35,98.142c-19.299,0-35,15.701-35,35c0,9.373,3.683,18.173,10.222,24.709
	c-3.9,8.37-5.875,17.076-5.875,25.936c0,24.048,14.396,46.492,40.538,63.199c25.447,16.264,59.183,25.221,94.989,25.221
	c35.808,0,69.542-8.957,94.989-25.221c26.142-16.707,40.538-39.151,40.538-63.199c0-8.859-1.975-17.565-5.875-25.936
	C276.065,151.314,279.748,142.515,279.748,133.142z M15.369,145.139c-2.212-3.59-3.369-7.688-3.369-11.997c0-12.682,10.317-23,23-23
	c5.444,0,10.558,1.851,14.649,5.258C35.027,123.702,23.517,133.689,15.369,145.139z M68.04,165.405c0-13.785,11.215-25,25-25
	c13.785,0,25,11.215,25,25c0,13.785-11.215,25-25,25C79.255,190.405,68.04,179.19,68.04,165.405z M191.159,222.459
	c-9.745,10.637-29.396,17.244-51.285,17.244c-21.888,0-41.539-6.607-51.284-17.244c-1.805-1.97-2.733-4.525-2.617-7.192
	c0.116-2.669,1.266-5.133,3.235-6.937c1.849-1.694,4.247-2.627,6.754-2.627c2.797,0,5.484,1.183,7.373,3.244
	c5.803,6.333,20.827,10.756,36.539,10.756c15.712,0,30.737-4.423,36.539-10.756c1.889-2.062,4.576-3.244,7.374-3.244
	c2.508,0,4.906,0.933,6.755,2.627c1.97,1.804,3.118,4.268,3.234,6.937C193.893,217.934,192.964,220.489,191.159,222.459z
	 M186.708,190.405c-13.785,0-25-11.215-25-25c0-13.785,11.215-25,25-25c13.785,0,25,11.215,25,25
	C211.708,179.19,200.493,190.405,186.708,190.405z M264.379,145.139c-8.147-11.45-19.657-21.436-34.28-29.739
	c4.092-3.408,9.205-5.258,14.649-5.258c12.683,0,23,10.318,23,23C267.748,137.451,266.591,141.549,264.379,145.139z"/>
<g>
</g>
<g>
</g>
<g>
</g>
<g>
</g>
<g>
</g>
<g>
</g>
<g>
</g>
<g>
</g>
<g>
</g>
<g>
</g>
<g>
</g>
<g>
</g>
<g>
</g>
<g>
</g>
<g>
</g>
</svg>
